<?xml version="1.0"?>
<svg xmlns:rdf="http://www.w3.org/1999/02/22-rdf-syntax-ns#" xmlns="http://www.w3.org/2000/svg" xmlns:cc="http://creativecommons.org/ns#" xmlns:dc="http://purl.org/dc/elements/1.1/" xmlns:svg="http://www.w3.org/2000/svg" id="svg2" viewBox="0 0 304.63 316.67" version="1.1">
  <g id="layer1" transform="translate(-140.36 -317.22)">
    <path id="path2844" d="m239.15 317.22l-98.781 51.938 77.406 125.28c-14.285 10.84-1.0905 23.437 11.344 26.875 9.5828 8.8315 15.451 20.812 23.281 31.156-14.258 13.918-31.258 25.855-42.781 41.75-11.342 15.644 15.971 14.272 23.156 3.1562 10.046-15.541 26.641-27.207 39.969-40.812 20.368 0.33933 40.757 0.66056 61.125 1 20.368 28.854 36.288 64.143 57.156 75.5 9.3632 5.0955 4.7092-14.421 13.875-27.938 9.7597-14.393 23.065-43.632 35.031-48.406 12.14-4.8436-0.0366-16.735-10.25-21.438-5.628-2.5912-8.2052-10.272-12.312-15.406 8.826-11.881 21.746-22.08 26.469-35.625 6.9656-19.973-26.113-19.909-40.094-16.5-16.17 0.61187-35.589-30.826-26.75-35.969 8.0702-4.6955 20.444 15.994 31.875 0.0625 10.394-14.487 7.4823-34.674-12.781-32.812-23.792 2.1851-42.343 22.21-66.469 19.531-10.802-1.1996-27.296 8.2349-34.094-2.1875-18.791-33.046-37.584-66.111-56.375-99.156zm113.81 118.41-30.562 29s-15.263-22.646-16.281-24.938l46.844-4.0625zm7.125 16.531 12.469 19.625-32.844 0.25 20.375-19.875zm53.594 87.781c2.7969-0.0367 6.2418 4.9355 5.4688 6.9375-6.9988 18.127-20.874 38.021-31.313 57.031-9.3352-14.597-18.665-29.184-28-43.781-0.2545-0.50922-0.5267-1.022-0.7812-1.5312l44.562-2.0312c2.7656-5.2321 4.6542-11.227 8.2813-15.719 0.5178-0.64126 1.1358-0.89779 1.7812-0.90625z"/>
  </g>
  <metadata>
    <rdf:RDF>
      <cc:Work>
        <dc:format>image/svg+xml</dc:format>
        <dc:type rdf:resource="http://purl.org/dc/dcmitype/StillImage"/>
        <cc:license rdf:resource="http://creativecommons.org/licenses/publicdomain/"/>
        <dc:publisher>
          <cc:Agent rdf:about="http://openclipart.org/">
            <dc:title>Openclipart</dc:title>
          </cc:Agent>
        </dc:publisher>
        <dc:title>Beach chair silhouette</dc:title>
        <dc:date>2010-06-08T07:14:03</dc:date>
        <dc:description>A silhouette of a beach chair.</dc:description>
        <dc:source>http://openclipart.org/detail/65011/beach-chair-silhouette-by-laobc</dc:source>
        <dc:creator>
          <cc:Agent>
            <dc:title>laobc</dc:title>
          </cc:Agent>
        </dc:creator>
        <dc:subject>
          <rdf:Bag>
            <rdf:li>beach</rdf:li>
            <rdf:li>chair</rdf:li>
            <rdf:li>clip art</rdf:li>
            <rdf:li>clipart</rdf:li>
            <rdf:li>silhouette</rdf:li>
            <rdf:li>summer</rdf:li>
            <rdf:li>summer2010</rdf:li>
          </rdf:Bag>
        </dc:subject>
      </cc:Work>
      <cc:License rdf:about="http://creativecommons.org/licenses/publicdomain/">
        <cc:permits rdf:resource="http://creativecommons.org/ns#Reproduction"/>
        <cc:permits rdf:resource="http://creativecommons.org/ns#Distribution"/>
        <cc:permits rdf:resource="http://creativecommons.org/ns#DerivativeWorks"/>
      </cc:License>
    </rdf:RDF>
  </metadata>
</svg>
